<svg width="227" height="40" viewBox="0 0 227 40" fill="none" xmlns="http://www.w3.org/2000/svg">
<mask id="mask0_445_9134" style="mask-type:alpha" maskUnits="userSpaceOnUse" x="16" y="8" width="24" height="24">
<rect x="16" y="8" width="24" height="24" fill="#D9D9D9"/>
</mask>
<g mask="url(#mask0_445_9134)">
<path d="M36.15 21H24V19H36.15L34.6 17.45L36 16L40 20L36 24L34.6 22.55L36.15 21ZM31 17V13H21V27H31V23H33V27C33 27.55 32.8042 28.0208 32.4125 28.4125C32.0208 28.8042 31.55 29 31 29H21C20.45 29 19.9792 28.8042 19.5875 28.4125C19.1958 28.0208 19 27.55 19 27V13C19 12.45 19.1958 11.9792 19.5875 11.5875C19.9792 11.1958 20.45 11 21 11H31C31.55 11 32.0208 11.1958 32.4125 11.5875C32.8042 11.9792 33 12.45 33 13V17H31Z" fill="#FF3B30"/>
</g>
<path d="M68.2188 23.7734V25H62.5312V23.7734H68.2188ZM62.8281 13.625V25H61.3203V13.625H62.8281ZM69.0238 20.8672V20.6875C69.0238 20.0781 69.1123 19.513 69.2894 18.9922C69.4665 18.4661 69.7217 18.0104 70.055 17.625C70.3883 17.2344 70.792 16.9323 71.2659 16.7188C71.7399 16.5 72.2711 16.3906 72.8597 16.3906C73.4534 16.3906 73.9873 16.5 74.4613 16.7188C74.9404 16.9323 75.3467 17.2344 75.68 17.625C76.0185 18.0104 76.2764 18.4661 76.4534 18.9922C76.6305 19.513 76.7191 20.0781 76.7191 20.6875V20.8672C76.7191 21.4766 76.6305 22.0417 76.4534 22.5625C76.2764 23.0833 76.0185 23.5391 75.68 23.9297C75.3467 24.3151 74.943 24.6172 74.4691 24.8359C74.0003 25.0495 73.4691 25.1562 72.8753 25.1562C72.2816 25.1562 71.7477 25.0495 71.2738 24.8359C70.7998 24.6172 70.3935 24.3151 70.055 23.9297C69.7217 23.5391 69.4665 23.0833 69.2894 22.5625C69.1123 22.0417 69.0238 21.4766 69.0238 20.8672ZM70.4691 20.6875V20.8672C70.4691 21.2891 70.5185 21.6875 70.6175 22.0625C70.7165 22.4323 70.8649 22.7604 71.0628 23.0469C71.2659 23.3333 71.5185 23.5599 71.8206 23.7266C72.1227 23.888 72.4743 23.9688 72.8753 23.9688C73.2711 23.9688 73.6175 23.888 73.9144 23.7266C74.2165 23.5599 74.4665 23.3333 74.6644 23.0469C74.8623 22.7604 75.0107 22.4323 75.1097 22.0625C75.2139 21.6875 75.2659 21.2891 75.2659 20.8672V20.6875C75.2659 20.2708 75.2139 19.8776 75.1097 19.5078C75.0107 19.1328 74.8597 18.8021 74.6566 18.5156C74.4586 18.224 74.2086 17.9948 73.9066 17.8281C73.6097 17.6615 73.2607 17.5781 72.8597 17.5781C72.4639 17.5781 72.1149 17.6615 71.8128 17.8281C71.5159 17.9948 71.2659 18.224 71.0628 18.5156C70.8649 18.8021 70.7165 19.1328 70.6175 19.5078C70.5185 19.8776 70.4691 20.2708 70.4691 20.6875ZM83.6881 16.5469H85.0006V24.8203C85.0006 25.5651 84.8496 26.2005 84.5475 26.7266C84.2454 27.2526 83.8235 27.651 83.2819 27.9219C82.7454 28.1979 82.1256 28.3359 81.4225 28.3359C81.1308 28.3359 80.7871 28.2891 80.3913 28.1953C80.0006 28.1068 79.6152 27.9531 79.235 27.7344C78.86 27.5208 78.5449 27.2318 78.2897 26.8672L79.0475 26.0078C79.4017 26.4349 79.7715 26.7318 80.1569 26.8984C80.5475 27.0651 80.9329 27.1484 81.3131 27.1484C81.7715 27.1484 82.1673 27.0625 82.5006 26.8906C82.834 26.7188 83.0918 26.4635 83.2741 26.125C83.4616 25.7917 83.5553 25.3802 83.5553 24.8906V18.4062L83.6881 16.5469ZM77.8678 20.8672V20.7031C77.8678 20.0573 77.9433 19.4714 78.0944 18.9453C78.2506 18.4141 78.472 17.9583 78.7584 17.5781C79.0501 17.1979 79.4017 16.9062 79.8131 16.7031C80.2246 16.4948 80.6881 16.3906 81.2038 16.3906C81.735 16.3906 82.1985 16.4844 82.5944 16.6719C82.9954 16.8542 83.334 17.1224 83.61 17.4766C83.8913 17.8255 84.1126 18.2474 84.2741 18.7422C84.4355 19.237 84.5475 19.7969 84.61 20.4219V21.1406C84.5527 21.7604 84.4407 22.3177 84.2741 22.8125C84.1126 23.3073 83.8913 23.7292 83.61 24.0781C83.334 24.4271 82.9954 24.6953 82.5944 24.8828C82.1933 25.0651 81.7246 25.1562 81.1881 25.1562C80.6829 25.1562 80.2246 25.0495 79.8131 24.8359C79.4069 24.6224 79.0579 24.3229 78.7663 23.9375C78.4746 23.5521 78.2506 23.099 78.0944 22.5781C77.9433 22.0521 77.8678 21.4818 77.8678 20.8672ZM79.3131 20.7031V20.8672C79.3131 21.2891 79.3548 21.6849 79.4381 22.0547C79.5267 22.4245 79.6595 22.75 79.8366 23.0312C80.0189 23.3125 80.2506 23.5339 80.5319 23.6953C80.8131 23.8516 81.1491 23.9297 81.5397 23.9297C82.0189 23.9297 82.4147 23.8281 82.7272 23.625C83.0397 23.4219 83.2871 23.1536 83.4694 22.8203C83.6569 22.487 83.8027 22.125 83.9069 21.7344V19.8516C83.8496 19.5651 83.761 19.2891 83.6413 19.0234C83.5267 18.7526 83.3756 18.513 83.1881 18.3047C83.0058 18.0911 82.7793 17.9219 82.5084 17.7969C82.2376 17.6719 81.9199 17.6094 81.5553 17.6094C81.1595 17.6094 80.8183 17.6927 80.5319 17.8594C80.2506 18.0208 80.0189 18.2448 79.8366 18.5312C79.6595 18.8125 79.5267 19.1406 79.4381 19.5156C79.3548 19.8854 79.3131 20.2812 79.3131 20.7031ZM99.5012 18.9531V19.6719C99.5012 20.526 99.3945 21.2917 99.1809 21.9688C98.9674 22.6458 98.6601 23.2214 98.2591 23.6953C97.858 24.1693 97.3762 24.5312 96.8137 24.7812C96.2565 25.0312 95.6315 25.1562 94.9387 25.1562C94.2669 25.1562 93.6497 25.0312 93.0872 24.7812C92.5299 24.5312 92.0455 24.1693 91.6341 23.6953C91.2278 23.2214 90.9127 22.6458 90.6887 21.9688C90.4648 21.2917 90.3528 20.526 90.3528 19.6719V18.9531C90.3528 18.099 90.4622 17.3359 90.6809 16.6641C90.9049 15.987 91.22 15.4115 91.6262 14.9375C92.0325 14.4583 92.5143 14.0938 93.0716 13.8438C93.6341 13.5938 94.2512 13.4688 94.9231 13.4688C95.6158 13.4688 96.2408 13.5938 96.7981 13.8438C97.3606 14.0938 97.8424 14.4583 98.2434 14.9375C98.6497 15.4115 98.9596 15.987 99.1731 16.6641C99.3919 17.3359 99.5012 18.099 99.5012 18.9531ZM98.0091 19.6719V18.9375C98.0091 18.2604 97.9387 17.6615 97.7981 17.1406C97.6627 16.6198 97.4622 16.1823 97.1966 15.8281C96.9309 15.474 96.6054 15.2057 96.22 15.0234C95.8398 14.8411 95.4075 14.75 94.9231 14.75C94.4544 14.75 94.0299 14.8411 93.6497 15.0234C93.2747 15.2057 92.9518 15.474 92.6809 15.8281C92.4153 16.1823 92.2096 16.6198 92.0637 17.1406C91.9179 17.6615 91.845 18.2604 91.845 18.9375V19.6719C91.845 20.3542 91.9179 20.9583 92.0637 21.4844C92.2096 22.0052 92.4179 22.4453 92.6887 22.8047C92.9648 23.1589 93.2903 23.4271 93.6653 23.6094C94.0455 23.7917 94.47 23.8828 94.9387 23.8828C95.4283 23.8828 95.8632 23.7917 96.2434 23.6094C96.6236 23.4271 96.944 23.1589 97.2044 22.8047C97.47 22.4453 97.6705 22.0052 97.8059 21.4844C97.9414 20.9583 98.0091 20.3542 98.0091 19.6719ZM106.392 23.0469V16.5469H107.845V25H106.463L106.392 23.0469ZM106.666 21.2656L107.267 21.25C107.267 21.8125 107.207 22.3333 107.088 22.8125C106.973 23.2865 106.785 23.6979 106.525 24.0469C106.265 24.3958 105.923 24.6693 105.502 24.8672C105.08 25.0599 104.567 25.1562 103.963 25.1562C103.551 25.1562 103.173 25.0964 102.83 24.9766C102.491 24.8568 102.199 24.6719 101.955 24.4219C101.71 24.1719 101.52 23.8464 101.384 23.4453C101.254 23.0443 101.189 22.5625 101.189 22V16.5469H102.634V22.0156C102.634 22.3958 102.676 22.7109 102.759 22.9609C102.848 23.2057 102.965 23.401 103.111 23.5469C103.262 23.6875 103.429 23.7865 103.611 23.8438C103.798 23.901 103.991 23.9297 104.189 23.9297C104.804 23.9297 105.291 23.8125 105.65 23.5781C106.009 23.3385 106.267 23.0182 106.423 22.6172C106.585 22.2109 106.666 21.7604 106.666 21.2656ZM113.268 16.5469V17.6562H108.697V16.5469H113.268ZM110.244 14.4922H111.689V22.9062C111.689 23.1927 111.734 23.4089 111.822 23.5547C111.911 23.7005 112.025 23.7969 112.166 23.8438C112.307 23.8906 112.458 23.9141 112.619 23.9141C112.739 23.9141 112.864 23.9036 112.994 23.8828C113.129 23.8568 113.231 23.8359 113.299 23.8203L113.307 25C113.192 25.0365 113.041 25.0703 112.853 25.1016C112.671 25.138 112.45 25.1562 112.189 25.1562C111.835 25.1562 111.51 25.0859 111.213 24.9453C110.916 24.8047 110.679 24.5703 110.502 24.2422C110.33 23.9089 110.244 23.4609 110.244 22.8984V14.4922Z" fill="#333333"/>
</svg>
